<?xml version="1.0" standalone="no"?>
<!DOCTYPE svg PUBLIC "-//W3C//DTD SVG 20010904//EN"
 "http://www.w3.org/TR/2001/REC-SVG-20010904/DTD/svg10.dtd">
<svg version="1.0" xmlns="http://www.w3.org/2000/svg"
 width="300.000000pt" height="300.000000pt" viewBox="0 0 300.000000 300.000000"
 preserveAspectRatio="xMidYMid meet">
<metadata>
Created by potrace 1.10, written by Peter Selinger 2001-2011
</metadata>
<g transform="translate(0.000000,300.000000) scale(0.100000,-0.100000)"
fill="#000000" stroke="none">
<path d="M2025 2754 c-9 -9 -14 -24 -11 -33 26 -84 36 -138 36 -206 0 -90 -14
-153 -55 -242 l-27 -61 -76 5 c-138 9 -255 -27 -343 -105 l-46 -41 301 -300
300 -301 34 33 c77 75 127 233 115 366 l-6 61 65 30 c130 61 278 74 394 34 54
-18 90 -12 99 16 11 35 -11 56 -77 75 -140 40 -313 27 -443 -34 l-62 -28 -12
47 c-17 67 -33 85 -88 100 -26 7 -51 16 -55 19 -4 4 3 29 16 56 64 134 78 320
35 450 -21 61 -27 70 -50 73 -15 2 -34 -4 -44 -14z m40 -449 c-41 -124 -39
-132 35 -164 46 -20 54 -29 76 -76 30 -70 49 -75 150 -41 42 15 79 24 82 21 3
-2 -4 -7 -14 -11 -77 -25 -148 -62 -162 -82 -12 -18 -15 -45 -14 -101 2 -43
-4 -105 -12 -139 -19 -84 -81 -189 -105 -180 -10 3 -311 299 -464 455 l-79 80
29 27 c15 15 53 38 83 53 48 23 72 27 179 31 115 4 126 7 147 29 58 63 96 196
94 327 -1 39 0 78 1 86 2 8 5 -35 6 -97 3 -106 2 -118 -32 -218z m583 -241
c12 -4 22 -11 22 -16 0 -5 -6 -6 -12 -2 -18 12 -162 14 -197 4 -17 -5 -33 -5
-36 0 -3 5 7 11 22 13 45 7 176 7 201 1z"/>
<path d="M1100 2395 c-6 -8 -27 -85 -46 -172 l-34 -158 70 -70 70 -71 -55 -54
-55 -54 -78 76 -77 76 -186 7 c-166 7 -187 6 -202 -10 -20 -20 -22 -58 -3 -74
8 -6 81 -14 180 -18 l167 -6 64 -62 63 -62 -75 -75 -76 -76 -75 79 -75 80 -81
-80 -81 -81 -146 0 c-156 0 -169 -4 -169 -50 0 -47 12 -50 196 -50 l171 0 53
56 53 56 44 -44 44 -44 -31 -67 c-50 -105 -65 -216 -50 -362 6 -66 14 -122 16
-124 3 -3 55 46 117 107 l113 113 -15 74 -15 75 54 55 c53 54 55 57 52 104 -6
84 42 141 118 141 95 0 152 -99 107 -187 -25 -48 -107 -78 -147 -53 -11 7 -26
-2 -61 -36 l-46 -45 15 -75 15 -76 -141 -141 -142 -142 17 -53 17 -53 191 191
192 192 -10 37 c-9 32 -7 45 9 76 42 81 136 95 201 30 27 -27 33 -41 33 -74 0
-88 -55 -138 -140 -128 l-47 6 -188 -189 c-104 -104 -187 -191 -185 -193 3 -1
28 -10 56 -19 l52 -15 153 154 154 155 81 -5 82 -5 55 57 c54 53 56 58 50 97
-16 117 114 190 201 113 41 -36 53 -81 36 -133 -19 -59 -92 -96 -146 -76 -26
10 -32 7 -100 -61 l-72 -72 -79 7 -78 6 -127 -126 c-71 -70 -126 -129 -124
-131 9 -10 131 -23 212 -23 103 0 222 26 289 64 l43 23 45 -45 45 -45 -59 -54
-59 -55 0 -164 c0 -151 2 -166 20 -184 11 -11 27 -20 35 -20 8 0 24 9 35 20
18 18 20 33 20 162 l0 143 78 78 77 78 -79 75 -79 75 76 76 76 76 65 -69 66
-69 0 -157 c0 -145 2 -160 20 -178 24 -24 39 -25 65 -6 18 13 19 27 16 202
l-2 189 -80 80 -79 80 55 55 56 54 72 -70 72 -70 157 35 c169 39 195 52 184
95 -10 40 -43 42 -187 10 l-130 -28 -49 49 -49 49 55 50 55 51 -405 404 -404
404 -51 -54 -50 -54 -50 50 -51 50 30 133 c35 156 34 146 14 166 -19 20 -58
21 -74 1z m33 -117 c-7 -40 -18 -86 -23 -102 -21 -62 -13 -92 39 -146 63 -65
81 -67 142 -19 20 16 41 29 45 29 5 0 175 -166 377 -369 l369 -368 -36 -47
c-20 -26 -36 -55 -36 -64 0 -20 57 -87 94 -112 31 -19 42 -19 180 10 94 19
121 20 100 2 -11 -10 -146 -42 -244 -58 -32 -5 -39 -2 -78 40 -85 90 -108 92
-188 12 -62 -62 -59 -80 25 -171 l70 -75 3 -133 c3 -136 -2 -210 -14 -192 -3
6 -9 75 -12 154 -5 136 -7 147 -33 184 -28 40 -95 99 -125 110 -20 7 -75 -32
-134 -94 -63 -66 -63 -77 -5 -147 28 -33 55 -63 61 -67 18 -11 11 -22 -42 -77
-29 -30 -59 -65 -65 -78 -8 -15 -14 -74 -15 -148 -2 -73 -7 -122 -13 -122 -11
0 -20 229 -10 267 3 13 25 45 50 73 25 28 45 59 45 69 0 23 -48 85 -82 106
-27 15 -31 15 -115 -19 -49 -19 -118 -39 -155 -44 -65 -8 -188 -6 -217 4 -10
3 15 35 80 100 l94 94 75 -1 c41 -1 81 0 88 2 8 2 40 30 72 61 55 54 62 58
106 58 100 0 170 76 162 176 -9 110 -113 170 -218 126 -56 -23 -101 -101 -95
-164 3 -32 -1 -41 -41 -78 l-44 -41 -73 7 -74 6 -49 -44 c-27 -24 -97 -92
-157 -151 -59 -59 -112 -107 -117 -107 -27 0 2 38 134 169 l145 145 61 7 c96
11 162 72 166 153 4 78 -53 151 -128 162 -21 4 -41 10 -43 15 -3 4 6 24 20 45
41 61 29 141 -31 195 -63 57 -135 59 -199 6 -45 -36 -65 -80 -65 -140 0 -37
-5 -48 -36 -78 -55 -52 -66 -84 -52 -158 l12 -62 -69 -69 c-38 -39 -75 -70
-81 -70 -47 0 -24 280 32 392 13 26 24 57 24 68 0 24 -72 106 -101 115 -20 7
-63 -20 -114 -71 -23 -23 -29 -24 -175 -24 -93 0 -150 4 -150 10 0 6 50 10
128 11 70 0 135 3 144 7 9 4 44 33 77 65 33 31 66 57 73 57 7 0 40 -25 72 -55
33 -30 67 -55 77 -55 24 0 94 55 142 112 48 58 46 79 -19 148 -65 70 -90 79
-224 80 -133 2 -180 8 -180 23 0 6 56 8 172 3 l172 -7 58 -57 c82 -82 86 -85
114 -78 14 4 48 29 75 56 67 67 66 86 -10 165 -40 42 -59 68 -56 81 3 15 26
114 30 134 1 3 5 23 9 45 10 54 24 87 35 81 4 -3 2 -38 -6 -78z m0 -934 c3 -4
-5 -26 -18 -49 -17 -29 -25 -57 -25 -90 l0 -49 -149 -149 c-81 -82 -154 -148
-161 -145 -7 2 33 51 95 113 162 166 159 161 151 248 -7 65 -5 76 14 100 16
19 30 27 54 27 18 0 36 -3 39 -6z"/>
<path d="M1077 1542 c-21 -23 -21 -41 -1 -70 29 -42 104 -18 104 35 0 47 -71
71 -103 35z"/>
<path d="M1207 1252 c-23 -25 -21 -58 3 -82 26 -26 46 -25 75 5 30 29 31 49 5
75 -25 25 -62 26 -83 2z"/>
<path d="M1582 1204 c-43 -30 -20 -104 32 -104 52 0 76 75 34 104 -12 9 -27
16 -33 16 -6 0 -21 -7 -33 -16z"/>
</g>
</svg>
